<svg width="200" height="200" viewBox="0 0 200 200" fill="none" xmlns="http://www.w3.org/2000/svg">
<rect width="200" height="200" rx="20" fill="#F5F7FA"></rect>
<circle cx="100" cy="60" r="28" stroke="#2B4A8A" stroke-width="6"></circle>
<path d="M60 140C60 118 78 100 100 100C122 100 140 118 140 140V160H60V140Z" stroke="#2B4A8A" stroke-width="6"></path>
<rect x="50" y="140" width="100" height="30" fill="#2B4A8A" opacity="0.12"></rect>
<rect x="135" y="110" width="45" height="30" rx="6" fill="#E8EEF8"></rect>
<path d="M140 120H175M140 130H165" stroke="#2B4A8A" stroke-width="4" stroke-linecap="round"></path>
<rect x="20" y="110" width="45" height="30" rx="6" fill="#E8EEF8"></rect>
<path d="M25 120H55M25 130H48" stroke="#2B4A8A" stroke-width="4" stroke-linecap="round"></path>
<path d="M70 55L100 40L130 55L100 70L70 55Z" fill="#2B4A8A"></path>
<path d="M100 70V88" stroke="#2B4A8A" stroke-width="5" stroke-linecap="round"></path>
</svg>
